<svg width="34" height="34" viewBox="0 0 34 34" fill="none" xmlns="http://www.w3.org/2000/svg">
<path d="M31.1667 12.0417H27.6746L22.4329 4.17209C22.2244 3.85949 21.9002 3.64252 21.5317 3.56893C21.1633 3.49534 20.7806 3.57114 20.468 3.77967C20.1554 3.9882 19.9385 4.31236 19.8649 4.68086C19.7913 5.04935 19.8671 5.43199 20.0756 5.74459L24.2704 12.0417H9.72969L13.9287 5.74459C14.1372 5.43199 14.213 5.04935 14.1394 4.68086C14.0658 4.31236 13.8489 3.9882 13.5363 3.77967C13.2237 3.57114 12.841 3.49534 12.4725 3.56893C12.104 3.64252 11.7799 3.85949 11.5714 4.17209L6.32544 12.0417H2.83335C2.45763 12.0417 2.0973 12.1909 1.83162 12.4566C1.56594 12.7223 1.41669 13.0826 1.41669 13.4583C1.41669 13.8341 1.56594 14.1944 1.83162 14.4601C2.0973 14.7257 2.45763 14.875 2.83335 14.875H4.25002V26.2083C4.25002 27.3355 4.69779 28.4165 5.49482 29.2135C6.29185 30.0106 7.37285 30.4583 8.50002 30.4583H25.5C26.6272 30.4583 27.7082 30.0106 28.5052 29.2135C29.3023 28.4165 29.75 27.3355 29.75 26.2083V14.875H31.1667C31.5424 14.875 31.9027 14.7257 32.1684 14.4601C32.4341 14.1944 32.5834 13.8341 32.5834 13.4583C32.5834 13.0826 32.4341 12.7223 32.1684 12.4566C31.9027 12.1909 31.5424 12.0417 31.1667 12.0417ZM26.9167 26.2083C26.9167 26.5841 26.7674 26.9444 26.5018 27.2101C26.2361 27.4757 25.8757 27.625 25.5 27.625H8.50002C8.1243 27.625 7.76396 27.4757 7.49829 27.2101C7.23261 26.9444 7.08335 26.5841 7.08335 26.2083V14.875H26.9167V26.2083ZM9.91669 24.0833V18.4167C9.91669 18.0409 10.0659 17.6806 10.3316 17.4149C10.5973 17.1493 10.9576 17 11.3334 17C11.7091 17 12.0694 17.1493 12.3351 17.4149C12.6008 17.6806 12.75 18.0409 12.75 18.4167V24.0833C12.75 24.4591 12.6008 24.8194 12.3351 25.0851C12.0694 25.3507 11.7091 25.5 11.3334 25.5C10.9576 25.5 10.5973 25.3507 10.3316 25.0851C10.0659 24.8194 9.91669 24.4591 9.91669 24.0833ZM15.5834 24.0833V18.4167C15.5834 18.0409 15.7326 17.6806 15.9983 17.4149C16.264 17.1493 16.6243 17 17 17C17.3757 17 17.7361 17.1493 18.0018 17.4149C18.2674 17.6806 18.4167 18.0409 18.4167 18.4167V24.0833C18.4167 24.4591 18.2674 24.8194 18.0018 25.0851C17.7361 25.3507 17.3757 25.5 17 25.5C16.6243 25.5 16.264 25.3507 15.9983 25.0851C15.7326 24.8194 15.5834 24.4591 15.5834 24.0833ZM21.25 24.0833V18.4167C21.25 18.0409 21.3993 17.6806 21.665 17.4149C21.9306 17.1493 22.291 17 22.6667 17C23.0424 17 23.4027 17.1493 23.6684 17.4149C23.9341 17.6806 24.0834 18.0409 24.0834 18.4167V24.0833C24.0834 24.4591 23.9341 24.8194 23.6684 25.0851C23.4027 25.3507 23.0424 25.5 22.6667 25.5C22.291 25.5 21.9306 25.3507 21.665 25.0851C21.3993 24.8194 21.25 24.4591 21.25 24.0833Z" fill="#323232"/>
</svg>
