<svg width="34" height="34" viewBox="0 0 34 34" fill="none" xmlns="http://www.w3.org/2000/svg">
<path d="M17 31.1667C24.8239 31.1667 31.1666 24.824 31.1666 17C31.1666 9.17596 24.8239 2.83334 17 2.83334C9.17594 2.83334 2.83331 9.17596 2.83331 17C2.83331 19.2662 3.36544 21.4081 4.31155 23.3077C4.56298 23.8125 4.64666 24.3895 4.5009 24.9342L3.65712 28.0878C3.29083 29.4568 4.54324 30.7091 5.91223 30.3429L9.06578 29.4991C9.61055 29.3533 10.1875 29.4371 10.6923 29.6884C12.5918 30.6346 14.7337 31.1667 17 31.1667Z" stroke="#323232" stroke-width="3"/>
<path d="M11.3333 14.875H22.6666" stroke="#323232" stroke-width="3" stroke-linecap="round"/>
<path d="M11.3333 19.8333H19.125" stroke="#323232" stroke-width="3" stroke-linecap="round"/>
</svg>