<svg width="34" height="34" viewBox="0 0 34 34" fill="none" xmlns="http://www.w3.org/2000/svg">
<path d="M2.83331 17.2889C2.83331 14.047 2.83331 12.426 3.56885 11.0822C4.30438 9.73847 5.64816 8.90448 8.33569 7.23653L11.169 5.47808C14.0099 3.71492 15.4305 2.83334 17 2.83334C18.5695 2.83334 19.99 3.71492 22.831 5.47808L25.6643 7.23651C28.3519 8.90448 29.6956 9.73847 30.4311 11.0822C31.1666 12.426 31.1666 14.047 31.1666 17.2889V19.4438C31.1666 24.9699 31.1666 27.7331 29.5069 29.4498C27.8473 31.1667 25.1758 31.1667 19.8333 31.1667H14.1666C8.82406 31.1667 6.15278 31.1667 4.49304 29.4498C2.83331 27.7331 2.83331 24.9699 2.83331 19.4438V17.2889Z" stroke="#323232" stroke-width="3"/>
<path d="M21.25 25.5H12.75" stroke="#323232" stroke-width="3" stroke-linecap="round"/>
</svg>
