<svg width="34" height="34" viewBox="0 0 34 34" fill="none" xmlns="http://www.w3.org/2000/svg">
<path fill-rule="evenodd" clip-rule="evenodd" d="M17 4.25001C11.1224 4.25001 5.66665 8.12312 5.66665 14.1667C5.66665 16.3914 6.21691 18.0326 7.20022 19.3452C8.20252 20.6831 9.74305 21.7973 11.923 22.7953L13.0795 23.3247L12.6773 24.5313C12.1001 26.2627 11.1208 27.8532 10.1314 29.1612C13.5499 28.0873 18.0153 26.4261 21.1725 24.3212C24.303 22.2343 26.0623 20.5917 27.057 19.0613C28.0157 17.5864 28.3333 16.1089 28.3333 14.1667C28.3333 8.12312 22.8776 4.25001 17 4.25001ZM2.83331 14.1667C2.83331 6.04356 10.1275 1.41667 17 1.41667C23.8724 1.41667 31.1666 6.04356 31.1666 14.1667C31.1666 16.4744 30.7759 18.5386 29.4325 20.6054C28.1252 22.6167 25.9886 24.5157 22.7441 26.6788C18.5273 29.4899 12.4183 31.4829 8.92175 32.4815C7.77273 32.8096 6.85743 32.1354 6.46342 31.4331C6.07533 30.7414 5.97955 29.6727 6.72083 28.8453C7.71287 27.7381 8.80036 26.312 9.52871 24.7734C7.65046 23.7775 6.0821 22.5783 4.93266 21.0439C3.52443 19.1642 2.83331 16.9003 2.83331 14.1667Z" fill="#323232"/>
</svg>
