<svg width="34" height="34" viewBox="0 0 34 34" fill="none" xmlns="http://www.w3.org/2000/svg">
<path d="M5.66669 11.3333C5.66669 7.3264 5.66669 5.32294 6.91148 4.07814C8.15628 2.83334 10.1597 2.83334 14.1667 2.83334H19.8334C23.8403 2.83334 25.8437 2.83334 27.0885 4.07814C28.3334 5.32294 28.3334 7.3264 28.3334 11.3333V22.6667C28.3334 26.6736 28.3334 28.677 27.0885 29.9219C25.8437 31.1667 23.8403 31.1667 19.8334 31.1667H14.1667C10.1597 31.1667 8.15628 31.1667 6.91148 29.9219C5.66669 28.677 5.66669 26.6736 5.66669 22.6667V11.3333Z" stroke="#323232" stroke-width="3"/>
<path d="M28.1886 22.6667H11.1885C9.87108 22.6667 9.21235 22.6667 8.67189 22.8114C7.20524 23.2044 6.05967 24.3501 5.66669 25.8166" stroke="#323232" stroke-width="3"/>
<path d="M11.3333 9.91666H22.6666" stroke="#323232" stroke-width="3" stroke-linecap="round"/>
<path d="M11.3333 14.875H18.4166" stroke="#323232" stroke-width="3" stroke-linecap="round"/>
</svg>
