<svg width="34" height="34" viewBox="0 0 34 34" fill="none" xmlns="http://www.w3.org/2000/svg">
<g clip-path="url(#clip0_1_58)">
<path d="M22.3322 5.66667C23.9419 5.66667 25.4136 6.57619 26.1335 8.01602L28.0921 11.933C28.4375 11.7923 28.7821 11.6472 29.117 11.4826C29.8167 11.1331 30.6673 11.4168 31.0171 12.1165C31.367 12.8162 31.0834 13.6672 30.3835 14.0171C29.6837 14.367 29.3625 14.4739 29.3625 14.4739L30.718 17.1849C31.0129 17.7751 31.1667 18.4257 31.1667 19.0855V22.6667C31.1667 23.9254 30.6194 25.0563 29.75 25.8345V27.625C29.75 28.7986 28.7986 29.75 27.625 29.75C26.4513 29.75 25.5 28.7986 25.5 27.625V26.9167H8.49997V27.625C8.49997 28.7986 7.54856 29.75 6.37495 29.75C5.20136 29.75 4.24995 28.7986 4.24995 27.625V25.8345C3.38049 25.0563 2.83328 23.9254 2.83328 22.6667V19.0855C2.83328 18.4257 2.98691 17.7751 3.28197 17.1849L4.63745 14.4739C4.29449 14.331 3.95402 14.1815 3.61993 14.0189C2.9166 13.6672 2.63295 12.8162 2.98286 12.1165C3.33218 11.4178 4.19504 11.1445 4.8899 11.486C5.22341 11.6476 5.56482 11.7932 5.90789 11.933L7.8664 8.01602C8.58633 6.57619 10.0579 5.66667 11.6677 5.66667H22.3322ZM26.6816 15.4479C24.273 16.2075 20.8462 17 17 17C13.1537 17 9.72684 16.2075 7.31825 15.4479L5.81619 18.4519C5.71783 18.6487 5.66662 18.8656 5.66662 19.0855V22.6667C5.66662 23.4491 6.30089 24.0833 7.08328 24.0833H26.9167C27.6991 24.0833 28.3333 23.4491 28.3333 22.6667V19.0855C28.3333 18.8656 28.282 18.6487 28.1837 18.4519L26.6816 15.4479ZM10.625 18.4167C11.7986 18.4167 12.75 19.3681 12.75 20.5417C12.75 21.7152 11.7986 22.6667 10.625 22.6667C9.45136 22.6667 8.49995 21.7152 8.49995 20.5417C8.49995 19.3681 9.45136 18.4167 10.625 18.4167ZM23.375 18.4167C24.5486 18.4167 25.5 19.3681 25.5 20.5417C25.5 21.7152 24.5486 22.6667 23.375 22.6667C22.2013 22.6667 21.25 21.7152 21.25 20.5417C21.25 19.3681 22.2013 18.4167 23.375 18.4167ZM22.3322 8.50001H11.6677C11.1311 8.50001 10.6406 8.80317 10.4006 9.28312L8.60281 12.8787C10.7949 13.5362 13.7488 14.1667 17 14.1667C20.2511 14.1667 23.205 13.5362 25.3971 12.8787L23.5993 9.28312C23.3593 8.80317 22.8688 8.50001 22.3322 8.50001Z" fill="#323232"/>
</g>
<defs>
<clipPath id="clip0_1_58">
<rect width="34" height="34" fill="white"/>
</clipPath>
</defs>
</svg>
