<svg width="34" height="34" viewBox="0 0 34 34" fill="none" xmlns="http://www.w3.org/2000/svg">
<path d="M25.1657 2.83334C24.3775 2.83084 23.5966 2.98496 22.8685 3.28677C22.1404 3.58858 21.4795 4.03204 20.9242 4.59142L4.46957 21.0446C4.2585 21.256 4.11967 21.5287 4.0729 21.8238L2.85032 29.5276C2.81507 29.7486 2.8327 29.9748 2.90175 30.1877C2.9708 30.4006 3.08931 30.5941 3.24757 30.7524C3.40584 30.9107 3.59935 31.0292 3.81225 31.0982C4.02515 31.1673 4.25138 31.1849 4.4724 31.1497L12.1833 29.9271C12.4784 29.8803 12.7511 29.7415 12.9625 29.5304L29.4086 13.0758C30.2476 12.2361 30.8187 11.1664 31.0497 10.002C31.2807 8.83759 31.1611 7.63086 30.7062 6.53442C30.2512 5.43799 29.4813 4.50112 28.4938 3.84232C27.5063 3.18352 26.3456 2.83238 25.1586 2.83334H25.1657ZM11.2767 27.2L5.94998 28.05L6.79998 22.7276L18.6858 10.8403L23.1653 15.3198L11.2767 27.2ZM27.4054 11.0727L25.1671 13.3167L20.6833 8.83292L22.9231 6.59459C23.5263 6.01877 24.3282 5.6975 25.1621 5.6975C25.996 5.6975 26.7979 6.01877 27.4011 6.59459C27.6954 6.88851 27.9288 7.23755 28.0881 7.62174C28.2473 8.00593 28.3293 8.41774 28.3293 8.83363C28.3293 9.24952 28.2473 9.66133 28.0881 10.0455C27.9288 10.4297 27.6954 10.7787 27.4011 11.0727H27.4054Z" fill="#323232"/>
</svg>
