<svg width="31" height="39" viewBox="0 0 31 39" fill="none" xmlns="http://www.w3.org/2000/svg">
<path d="M28.46 19.4C28.4266 22.5667 28.5766 25.6833 28.91 28.75C29.2766 31.7833 29.8266 34.7667 30.56 37.7C29.56 37.9667 28.4433 38.1833 27.21 38.35C26.01 38.5167 24.66 38.6333 23.16 38.7C22.76 37.8667 22.3766 37.0167 22.01 36.15C21.6766 35.25 21.36 34.35 21.06 33.45C19.7933 34.9833 18.36 36.1333 16.76 36.9C15.16 37.6667 13.3766 38.05 11.41 38.05C7.97663 38.05 5.24329 36.7833 3.20996 34.25C1.20996 31.7167 0.209961 28.2833 0.209961 23.95C0.209961 17.45 1.77663 11.9667 4.90996 7.5C8.04329 3.03333 11.9933 0.799998 16.76 0.799998C20.06 0.799998 22.6933 1.76667 24.66 3.7C26.66 5.6 27.81 8.26667 28.11 11.7C26.6433 12.1667 25.0766 12.5167 23.41 12.75C21.7766 12.9833 19.9766 13.1 18.01 13.1C17.61 10.7667 17.1766 9.13333 16.71 8.2C16.2433 7.26667 15.6433 6.8 14.91 6.8C13.6433 6.8 12.6266 8.08333 11.86 10.65C11.0933 13.2167 10.71 16.6167 10.71 20.85C10.71 24.1167 11.0433 26.5 11.71 28C12.3766 29.5 13.4433 30.25 14.91 30.25C15.8433 30.25 16.6933 29.95 17.46 29.35C18.2266 28.7167 18.8433 27.8333 19.31 26.7C19.1433 25.6667 18.9933 24.6333 18.86 23.6C18.7266 22.5667 18.6266 21.5333 18.56 20.5C19.8933 20.1333 21.3433 19.8667 22.91 19.7C24.51 19.5 26.36 19.4 28.46 19.4Z" fill="#60CE72"/>
</svg>
