<svg width="127" height="41" viewBox="0 0 127 41" fill="none" xmlns="http://www.w3.org/2000/svg">
<path d="M29.1328 20.4C29.0995 23.5667 29.2495 26.6833 29.5828 29.75C29.9495 32.7833 30.4995 35.7667 31.2328 38.7C30.2328 38.9667 29.1161 39.1833 27.8828 39.35C26.6828 39.5167 25.3328 39.6333 23.8328 39.7C23.4328 38.8667 23.0495 38.0167 22.6828 37.15C22.3495 36.25 22.0328 35.35 21.7328 34.45C20.4661 35.9833 19.0328 37.1333 17.4328 37.9C15.8328 38.6667 14.0495 39.05 12.0828 39.05C8.64948 39.05 5.91615 37.7833 3.88281 35.25C1.88281 32.7167 0.882813 29.2833 0.882813 24.95C0.882813 18.45 2.44948 12.9667 5.58281 8.5C8.71615 4.03333 12.6661 1.8 17.4328 1.8C20.7328 1.8 23.3661 2.76667 25.3328 4.7C27.3328 6.6 28.4828 9.26667 28.7828 12.7C27.3161 13.1667 25.7495 13.5167 24.0828 13.75C22.4495 13.9833 20.6495 14.1 18.6828 14.1C18.2828 11.7667 17.8495 10.1333 17.3828 9.2C16.9161 8.26667 16.3161 7.8 15.5828 7.8C14.3161 7.8 13.2995 9.08333 12.5328 11.65C11.7661 14.2167 11.3828 17.6167 11.3828 21.85C11.3828 25.1167 11.7161 27.5 12.3828 29C13.0495 30.5 14.1161 31.25 15.5828 31.25C16.5161 31.25 17.3661 30.95 18.1328 30.35C18.8995 29.7167 19.5161 28.8333 19.9828 27.7C19.8161 26.6667 19.6661 25.6333 19.5328 24.6C19.3995 23.5667 19.2995 22.5333 19.2328 21.5C20.5661 21.1333 22.0161 20.8667 23.5828 20.7C25.1828 20.5 27.0328 20.4 29.1328 20.4ZM42.3395 0.199998C43.3395 0.199998 44.2728 0.283331 45.1395 0.449998C46.0061 0.616664 46.7395 0.849997 47.3395 1.15C47.0395 1.85 46.7061 2.88333 46.3395 4.25C45.9728 5.58333 45.7061 6.76666 45.5395 7.8C44.4061 8 43.1395 8.15 41.7395 8.25C40.3395 8.31666 38.7561 8.33333 36.9895 8.3C36.7561 7.56666 36.5728 6.83333 36.4395 6.1C36.3395 5.36667 36.2895 4.65 36.2895 3.95C36.2895 3.41666 36.3061 2.95 36.3395 2.55C36.4061 2.15 36.4895 1.78333 36.5895 1.45C37.3561 1.01667 38.2061 0.699998 39.1395 0.499997C40.1061 0.299998 41.1728 0.199998 42.3395 0.199998ZM35.3895 12.8C36.2895 12.2667 37.3395 11.8667 38.5395 11.6C39.7395 11.3333 41.0395 11.2 42.4395 11.2C43.1061 11.2 43.7561 11.2333 44.3895 11.3C45.0561 11.3667 45.6895 11.45 46.2895 11.55C45.5561 13.7167 44.9061 17.1667 44.3395 21.9C43.8061 26.6333 43.4395 31.8167 43.2395 37.45C42.5395 37.8167 41.6395 38.1 40.5395 38.3C39.4728 38.5333 38.3561 38.65 37.1895 38.65C36.6895 38.65 36.2561 38.6333 35.8895 38.6C35.5228 38.5667 35.2061 38.5167 34.9395 38.45C34.4395 33.6833 34.2228 29.1167 34.2895 24.75C34.3561 20.35 34.7228 16.3667 35.3895 12.8ZM71.4113 19.4C70.3447 19.9 69.1113 20.2833 67.7113 20.55C66.3447 20.7833 64.6947 20.9 62.7613 20.9C62.7613 19.1333 62.5947 17.8333 62.2613 17C61.9613 16.1333 61.478 15.7 60.8113 15.7C59.8447 15.7 58.9947 16.9167 58.2613 19.35C57.528 21.75 57.1613 24.4667 57.1613 27.5C57.1613 29.4333 57.4113 30.95 57.9113 32.05C58.4113 33.15 59.1113 33.7 60.0113 33.7C60.8113 33.7 61.628 33.3833 62.4613 32.75C63.2947 32.0833 64.378 30.7833 65.7113 28.85C66.678 29.0167 67.628 29.4167 68.5613 30.05C69.4947 30.6833 70.2613 31.4333 70.8613 32.3C70.5947 33.1667 69.978 34.1 69.0113 35.1C68.0447 36.1 66.8947 36.9333 65.5613 37.6C64.4947 38.1333 63.328 38.5333 62.0613 38.8C60.828 39.1 59.528 39.25 58.1613 39.25C54.6947 39.25 51.978 38.2167 50.0113 36.15C48.078 34.0833 47.1113 31.3167 47.1113 27.85C47.1113 25.8167 47.4447 23.7833 48.1113 21.75C48.778 19.7167 49.728 17.9167 50.9613 16.35C52.2947 14.55 53.8613 13.1833 55.6613 12.25C57.4613 11.3167 59.4113 10.85 61.5113 10.85C64.6447 10.85 67.078 11.6167 68.8113 13.15C70.5447 14.65 71.4113 16.7333 71.4113 19.4ZM83.5855 30.1C83.6189 32.0333 83.6855 33.75 83.7855 35.25C83.9189 36.75 84.1022 38.2 84.3355 39.6C83.1689 40.0333 81.9355 40.3333 80.6355 40.5C79.3355 40.7 77.7189 40.8 75.7855 40.8C75.3522 38.8667 75.0189 36.3833 74.7855 33.35C74.5522 30.2833 74.4355 26.9 74.4355 23.2C74.4355 19.3333 74.5522 15.1 74.7855 10.5C75.0189 5.86667 75.3189 2.56667 75.6855 0.599999C77.1522 0.599999 79.0689 0.799998 81.4355 1.2C83.8022 1.6 85.5189 2.03333 86.5855 2.5C86.1189 4.13333 85.6355 6.63333 85.1355 10C84.6355 13.3333 84.2522 16.7167 83.9855 20.15C84.9189 19.15 85.8855 18.0333 86.8855 16.8C87.8855 15.5667 89.8355 13.0167 92.7355 9.15C93.9689 9.71667 95.2189 10.5833 96.4855 11.75C97.7522 12.9167 98.7189 14.0667 99.3855 15.2C98.0855 16.8333 96.5689 18.4333 94.8355 20C93.1022 21.5333 91.0689 23.1333 88.7355 24.8C90.0022 26.0667 91.4689 27.35 93.1355 28.65C94.8022 29.95 97.0689 31.5333 99.9355 33.4C98.3355 35.3333 96.9355 36.75 95.7355 37.65C94.5689 38.5167 93.3189 39.15 91.9855 39.55C90.4522 38.1833 88.9855 36.7167 87.5855 35.15C86.1855 33.5833 84.8522 31.9 83.5855 30.1ZM117.266 21.2C120.266 23 122.266 24.6167 123.266 26.05C124.299 27.4833 124.816 29.0833 124.816 30.85C124.816 33.55 123.649 35.8 121.316 37.6C118.983 39.3667 116.133 40.25 112.766 40.25C109.899 40.25 107.499 39.3833 105.566 37.65C103.633 35.9167 102.666 33.8667 102.666 31.5C103.433 31.1333 104.449 30.8333 105.716 30.6C106.983 30.3333 108.116 30.2 109.116 30.2C109.116 31.6667 109.416 32.85 110.016 33.75C110.649 34.65 111.533 35.1 112.666 35.1C113.499 35.1 114.133 34.9167 114.566 34.55C114.999 34.1833 115.216 33.65 115.216 32.95C115.216 32.25 114.933 31.5667 114.366 30.9C113.833 30.2333 112.616 29.3167 110.716 28.15C107.883 26.3833 105.999 24.8333 105.066 23.5C104.133 22.1333 103.666 20.6 103.666 18.9C103.666 16.2333 104.683 14.0333 106.716 12.3C108.783 10.5333 111.416 9.65 114.616 9.65C117.783 9.65 120.349 10.35 122.316 11.75C124.316 13.15 125.583 15.1167 126.116 17.65C125.149 18.2833 124.049 18.7833 122.816 19.15C121.583 19.4833 119.966 19.7167 117.966 19.85C117.733 18.2833 117.366 17.15 116.866 16.45C116.399 15.7167 115.749 15.35 114.916 15.35C114.349 15.35 113.899 15.5167 113.566 15.85C113.266 16.1833 113.116 16.6333 113.116 17.2C113.116 17.7333 113.366 18.2833 113.866 18.85C114.366 19.3833 115.499 20.1667 117.266 21.2Z" fill="#60CE72"/>
</svg>
