<svg width="40" height="40" viewBox="0 0 40 40" fill="none" xmlns="http://www.w3.org/2000/svg">
<path d="M34.2675 30.7325L27.9213 24.3863C29.2325 22.41 30 20.0438 30 17.5C30 10.6075 24.3925 5 17.5 5C10.6075 5 5 10.6075 5 17.5C5 24.3925 10.6075 30 17.5 30C20.0438 30 22.41 29.2325 24.3863 27.9213L30.7325 34.2675C31.7075 35.2438 33.2925 35.2438 34.2675 34.2675C35.2438 33.2913 35.2438 31.7088 34.2675 30.7325ZM8.75 17.5C8.75 12.675 12.675 8.75 17.5 8.75C22.325 8.75 26.25 12.675 26.25 17.5C26.25 22.325 22.325 26.25 17.5 26.25C12.675 26.25 8.75 22.325 8.75 17.5Z" fill="#A6E0AF"/>
</svg>
